<?xml version="1.0" encoding="utf-8"?>
<!-- Generator: Adobe Illustrator 21.0.0, SVG Export Plug-In . SVG Version: 6.00 Build 0)  -->
<svg version="1.1" id="Layer_1" xmlns="http://www.w3.org/2000/svg" xmlns:xlink="http://www.w3.org/1999/xlink" x="0px" y="0px"
	 viewBox="0 0 500 500" style="enable-background:new 0 0 500 500;" xml:space="preserve">
<style type="text/css">
	.st0{fill:#007CD8;}
</style>
<path class="st0" d="M288.3,304.9v193.6c52.3-8,100.3-32.3,138.4-70.3c47.2-47.2,73.2-109.9,73.2-176.7s-26-129.5-73.2-176.7
	c-47.3-47.2-110-73.2-176.8-73.2c-66.8,0-129.5,26-176.7,73.2C26.1,122,0.1,184.7,0.1,251.5s26,129.5,73.2,176.7
	c37.6,37.6,85.2,61.8,136.7,70V304.9H144v-76.2h65.9c0,0,0-24.8,0-51.3c0-86,52.3-104,107.7-104c20.5,0,47.4,3,47.4,3v67.5
	c0,0-19.7,0-42.6,0c-24.5,0-34.3,14.1-34.3,34.3c0,18.1,0,50.4,0,50.4H363l-9.6,76.2H288.3z"/>
</svg>
