<?xml version="1.0" encoding="utf-8"?>
<!-- Generator: Adobe Illustrator 21.0.0, SVG Export Plug-In . SVG Version: 6.00 Build 0)  -->
<svg version="1.1" xmlns="http://www.w3.org/2000/svg" xmlns:xlink="http://www.w3.org/1999/xlink" x="0px" y="0px"
	 viewBox="0 0 500 500" style="enable-background:new 0 0 500 500;" xml:space="preserve">
<style type="text/css">
	.st0{fill:#007CD8;}
</style>
<g id="Layer_1">
</g>
<g id="Layer_2">
	<g>
		<circle class="st0" cx="250" cy="213.2" r="20.1"/>
		<circle class="st0" cx="188.2" cy="213.2" r="20.1"/>
		<circle class="st0" cx="311.8" cy="213.2" r="20.1"/>
		<path class="st0" d="M250,0C111.9,0,0,111.9,0,250s111.9,250,250,250s250-111.9,250-250S388.1,0,250,0z M404.5,294.8
			c0,10.2-8.3,18.5-18.5,18.5H236.4l-64.8,64.8c-6.7,6.7-18.2,2-18.2-7.5v-57.3H114c-10.2,0-18.5-8.3-18.5-18.5V137.2
			c0-10.2,8.3-18.5,18.5-18.5H386c10.2,0,18.5,8.3,18.5,18.5V294.8z"/>
	</g>
</g>
</svg>
