<?xml version="1.0" encoding="utf-8"?>
<!-- Generator: Adobe Illustrator 21.0.0, SVG Export Plug-In . SVG Version: 6.00 Build 0)  -->
<svg version="1.1" id="Layer_1" xmlns="http://www.w3.org/2000/svg" xmlns:xlink="http://www.w3.org/1999/xlink" x="0px" y="0px"
	 viewBox="0 0 500 500" style="enable-background:new 0 0 500 500;" xml:space="preserve">
<style type="text/css">
	.st0{fill:#007CD8;}
</style>
<title>Artboard 1</title>
<path class="st0" d="M250,0C111.9,0,0,111.9,0,250s111.9,250,250,250s250-111.9,250-250S388.1,0,250,0z M397,172c0,0,15,136-110,201
	s-222-7-222-7c66,8,111-30,111-30c-64-13-68-54-68-54c11,5,32,0,32,0c-65-20-59-75-59-75c16,8,33,8,33,8c-58-49-22-99-22-99
	c78,82,158,77,158,77c-12-10-4-73,46-89s80,19,80,19c18,3,48-19,48-19c-4,29-35,44-35,44c5,3,46-12,46-12C409,170,397,172,397,172z"
	/>
</svg>
